<mxfile host="app.diagrams.net" modified="2020-12-07T11:49:27.700Z" agent="5.0 (Windows NT 10.0; Win64; x64) AppleWebKit/537.36 (KHTML, like Gecko) Chrome/87.0.4280.88 Safari/537.36" etag="x49ShLAQVOHG1hyWZod5" version="13.10.9" type="github">
  <diagram id="C5RBs43oDa-KdzZeNtuy" name="Page-1">
    <mxGraphModel dx="868" dy="425" grid="1" gridSize="10" guides="1" tooltips="1" connect="1" arrows="1" fold="1" page="1" pageScale="1" pageWidth="827" pageHeight="1169" math="0" shadow="0">
      <root>
        <mxCell id="WIyWlLk6GJQsqaUBKTNV-0" />
        <mxCell id="WIyWlLk6GJQsqaUBKTNV-1" parent="WIyWlLk6GJQsqaUBKTNV-0" />
        <mxCell id="hDxcPRRpVYhOaGii5rO3-0" value="&lt;font style=&quot;font-size: 18px&quot;&gt;XOR&lt;/font&gt;" style="ellipse;whiteSpace=wrap;html=1;aspect=fixed;fillColor=#647687;strokeColor=#314354;fontColor=#ffffff;" vertex="1" parent="WIyWlLk6GJQsqaUBKTNV-1">
          <mxGeometry x="260" y="250" width="80" height="80" as="geometry" />
        </mxCell>
        <mxCell id="hDxcPRRpVYhOaGii5rO3-2" value="Приход на работу" style="rhombus;whiteSpace=wrap;html=1;strokeColor=#36393d;fillColor=#FF0080;" vertex="1" parent="WIyWlLk6GJQsqaUBKTNV-1">
          <mxGeometry x="240" width="120" height="100" as="geometry" />
        </mxCell>
        <mxCell id="hDxcPRRpVYhOaGii5rO3-3" value="Проверить наличие пропуска" style="rounded=1;whiteSpace=wrap;html=1;strokeColor=#82b366;fillColor=#00FF00;" vertex="1" parent="WIyWlLk6GJQsqaUBKTNV-1">
          <mxGeometry x="240" y="150" width="120" height="60" as="geometry" />
        </mxCell>
        <mxCell id="hDxcPRRpVYhOaGii5rO3-8" value="" style="endArrow=classic;html=1;" edge="1" parent="WIyWlLk6GJQsqaUBKTNV-1">
          <mxGeometry width="50" height="50" relative="1" as="geometry">
            <mxPoint x="299.5" y="100" as="sourcePoint" />
            <mxPoint x="300" y="150" as="targetPoint" />
          </mxGeometry>
        </mxCell>
        <mxCell id="hDxcPRRpVYhOaGii5rO3-9" value="" style="endArrow=classic;html=1;" edge="1" parent="WIyWlLk6GJQsqaUBKTNV-1">
          <mxGeometry width="50" height="50" relative="1" as="geometry">
            <mxPoint x="299.5" y="210" as="sourcePoint" />
            <mxPoint x="300" y="250" as="targetPoint" />
            <Array as="points">
              <mxPoint x="299.5" y="240" />
            </Array>
          </mxGeometry>
        </mxCell>
        <mxCell id="hDxcPRRpVYhOaGii5rO3-10" value="" style="endArrow=classic;html=1;" edge="1" parent="WIyWlLk6GJQsqaUBKTNV-1">
          <mxGeometry width="50" height="50" relative="1" as="geometry">
            <mxPoint x="260" y="289.5" as="sourcePoint" />
            <mxPoint x="200" y="289.5" as="targetPoint" />
          </mxGeometry>
        </mxCell>
        <mxCell id="hDxcPRRpVYhOaGii5rO3-11" value="" style="endArrow=classic;html=1;" edge="1" parent="WIyWlLk6GJQsqaUBKTNV-1">
          <mxGeometry width="50" height="50" relative="1" as="geometry">
            <mxPoint x="139.5" y="340" as="sourcePoint" />
            <mxPoint x="140" y="390" as="targetPoint" />
          </mxGeometry>
        </mxCell>
        <mxCell id="hDxcPRRpVYhOaGii5rO3-12" value="" style="endArrow=classic;html=1;" edge="1" parent="WIyWlLk6GJQsqaUBKTNV-1">
          <mxGeometry width="50" height="50" relative="1" as="geometry">
            <mxPoint x="139.5" y="450" as="sourcePoint" />
            <mxPoint x="140" y="500" as="targetPoint" />
          </mxGeometry>
        </mxCell>
        <mxCell id="hDxcPRRpVYhOaGii5rO3-13" value="" style="endArrow=classic;html=1;" edge="1" parent="WIyWlLk6GJQsqaUBKTNV-1" target="hDxcPRRpVYhOaGii5rO3-27">
          <mxGeometry width="50" height="50" relative="1" as="geometry">
            <mxPoint x="520" y="289.5" as="sourcePoint" />
            <mxPoint x="590.5" y="289.5" as="targetPoint" />
          </mxGeometry>
        </mxCell>
        <mxCell id="hDxcPRRpVYhOaGii5rO3-14" value="" style="endArrow=classic;html=1;" edge="1" parent="WIyWlLk6GJQsqaUBKTNV-1" target="hDxcPRRpVYhOaGii5rO3-26">
          <mxGeometry width="50" height="50" relative="1" as="geometry">
            <mxPoint x="139.5" y="580" as="sourcePoint" />
            <mxPoint x="140" y="630" as="targetPoint" />
          </mxGeometry>
        </mxCell>
        <mxCell id="hDxcPRRpVYhOaGii5rO3-15" value="" style="endArrow=classic;html=1;" edge="1" parent="WIyWlLk6GJQsqaUBKTNV-1">
          <mxGeometry width="50" height="50" relative="1" as="geometry">
            <mxPoint x="690" y="289.5" as="sourcePoint" />
            <mxPoint x="750" y="289.5" as="targetPoint" />
          </mxGeometry>
        </mxCell>
        <mxCell id="hDxcPRRpVYhOaGii5rO3-16" value="" style="endArrow=classic;html=1;entryX=0;entryY=0.5;entryDx=0;entryDy=0;exitX=1;exitY=0.5;exitDx=0;exitDy=0;" edge="1" parent="WIyWlLk6GJQsqaUBKTNV-1" source="hDxcPRRpVYhOaGii5rO3-34" target="hDxcPRRpVYhOaGii5rO3-36">
          <mxGeometry width="50" height="50" relative="1" as="geometry">
            <mxPoint x="390" y="755" as="sourcePoint" />
            <mxPoint x="390.5" y="805" as="targetPoint" />
          </mxGeometry>
        </mxCell>
        <mxCell id="hDxcPRRpVYhOaGii5rO3-17" value="&lt;font style=&quot;font-size: 18px&quot;&gt;XOR&lt;/font&gt;" style="ellipse;whiteSpace=wrap;html=1;aspect=fixed;fillColor=#647687;strokeColor=#314354;fontColor=#ffffff;" vertex="1" parent="WIyWlLk6GJQsqaUBKTNV-1">
          <mxGeometry x="780" y="380" width="80" height="80" as="geometry" />
        </mxCell>
        <mxCell id="hDxcPRRpVYhOaGii5rO3-19" value="" style="endArrow=classic;html=1;" edge="1" parent="WIyWlLk6GJQsqaUBKTNV-1">
          <mxGeometry width="50" height="50" relative="1" as="geometry">
            <mxPoint x="340" y="289.5" as="sourcePoint" />
            <mxPoint x="400" y="289.5" as="targetPoint" />
          </mxGeometry>
        </mxCell>
        <mxCell id="hDxcPRRpVYhOaGii5rO3-20" value="Пропуск есть" style="rhombus;whiteSpace=wrap;html=1;strokeColor=#36393d;fillColor=#FF0080;" vertex="1" parent="WIyWlLk6GJQsqaUBKTNV-1">
          <mxGeometry x="80" y="240" width="120" height="100" as="geometry" />
        </mxCell>
        <mxCell id="hDxcPRRpVYhOaGii5rO3-21" value="Пропуска нет" style="rhombus;whiteSpace=wrap;html=1;strokeColor=#36393d;fillColor=#FF0080;" vertex="1" parent="WIyWlLk6GJQsqaUBKTNV-1">
          <mxGeometry x="400" y="240" width="120" height="100" as="geometry" />
        </mxCell>
        <mxCell id="hDxcPRRpVYhOaGii5rO3-24" value="Проверить наличие пропуска" style="rounded=0;whiteSpace=wrap;html=1;fillColor=#00FF00;" vertex="1" parent="WIyWlLk6GJQsqaUBKTNV-1">
          <mxGeometry x="80" y="390" width="120" height="60" as="geometry" />
        </mxCell>
        <mxCell id="hDxcPRRpVYhOaGii5rO3-25" value="&lt;span&gt;Определить время прихода сотрудника и его индентификационный номер&lt;/span&gt;" style="rounded=0;whiteSpace=wrap;html=1;fillColor=#00FF00;" vertex="1" parent="WIyWlLk6GJQsqaUBKTNV-1">
          <mxGeometry x="75" y="500" width="130" height="80" as="geometry" />
        </mxCell>
        <mxCell id="hDxcPRRpVYhOaGii5rO3-26" value="Проверить факт опоздания" style="rounded=1;whiteSpace=wrap;html=1;fillColor=#00FF00;" vertex="1" parent="WIyWlLk6GJQsqaUBKTNV-1">
          <mxGeometry x="80" y="630" width="120" height="60" as="geometry" />
        </mxCell>
        <mxCell id="hDxcPRRpVYhOaGii5rO3-27" value="Обращение в службу охраны" style="rounded=0;whiteSpace=wrap;html=1;fillColor=#00FF00;" vertex="1" parent="WIyWlLk6GJQsqaUBKTNV-1">
          <mxGeometry x="570" y="260" width="120" height="60" as="geometry" />
        </mxCell>
        <mxCell id="hDxcPRRpVYhOaGii5rO3-28" value="Проверить свои ли данные вводит сотрудник" style="rounded=1;whiteSpace=wrap;html=1;fillColor=#00FF00;" vertex="1" parent="WIyWlLk6GJQsqaUBKTNV-1">
          <mxGeometry x="750" y="260" width="120" height="60" as="geometry" />
        </mxCell>
        <mxCell id="hDxcPRRpVYhOaGii5rO3-32" value="" style="edgeStyle=orthogonalEdgeStyle;rounded=0;orthogonalLoop=1;jettySize=auto;html=1;" edge="1" parent="WIyWlLk6GJQsqaUBKTNV-1" source="hDxcPRRpVYhOaGii5rO3-29">
          <mxGeometry relative="1" as="geometry">
            <mxPoint x="140" y="880" as="targetPoint" />
          </mxGeometry>
        </mxCell>
        <mxCell id="hDxcPRRpVYhOaGii5rO3-35" value="" style="edgeStyle=orthogonalEdgeStyle;rounded=0;orthogonalLoop=1;jettySize=auto;html=1;" edge="1" parent="WIyWlLk6GJQsqaUBKTNV-1" source="hDxcPRRpVYhOaGii5rO3-29" target="hDxcPRRpVYhOaGii5rO3-34">
          <mxGeometry relative="1" as="geometry" />
        </mxCell>
        <mxCell id="hDxcPRRpVYhOaGii5rO3-29" value="&lt;font style=&quot;font-size: 18px&quot;&gt;XOR&lt;/font&gt;" style="ellipse;whiteSpace=wrap;html=1;aspect=fixed;fillColor=#647687;strokeColor=#314354;fontColor=#ffffff;" vertex="1" parent="WIyWlLk6GJQsqaUBKTNV-1">
          <mxGeometry x="100" y="740" width="80" height="80" as="geometry" />
        </mxCell>
        <mxCell id="hDxcPRRpVYhOaGii5rO3-30" value="" style="endArrow=classic;html=1;" edge="1" parent="WIyWlLk6GJQsqaUBKTNV-1">
          <mxGeometry width="50" height="50" relative="1" as="geometry">
            <mxPoint x="139.5" y="690" as="sourcePoint" />
            <mxPoint x="139.8125" y="740" as="targetPoint" />
            <Array as="points">
              <mxPoint x="139.5" y="710" />
            </Array>
          </mxGeometry>
        </mxCell>
        <mxCell id="hDxcPRRpVYhOaGii5rO3-33" value="Сотрудник не опоздал" style="rhombus;whiteSpace=wrap;html=1;fillColor=#FF0080;" vertex="1" parent="WIyWlLk6GJQsqaUBKTNV-1">
          <mxGeometry x="80" y="880" width="120" height="100" as="geometry" />
        </mxCell>
        <mxCell id="hDxcPRRpVYhOaGii5rO3-34" value="&lt;font color=&quot;#000000&quot;&gt;Сотрудник опоздал&lt;/font&gt;" style="rhombus;whiteSpace=wrap;html=1;fontColor=#ffffff;strokeColor=#314354;fillColor=#FF0080;" vertex="1" parent="WIyWlLk6GJQsqaUBKTNV-1">
          <mxGeometry x="260" y="730" width="100" height="100" as="geometry" />
        </mxCell>
        <mxCell id="hDxcPRRpVYhOaGii5rO3-36" value="&lt;font style=&quot;font-size: 18px&quot;&gt;XOR&lt;/font&gt;" style="ellipse;whiteSpace=wrap;html=1;aspect=fixed;fillColor=#647687;strokeColor=#314354;fontColor=#ffffff;" vertex="1" parent="WIyWlLk6GJQsqaUBKTNV-1">
          <mxGeometry x="414" y="740" width="80" height="80" as="geometry" />
        </mxCell>
        <mxCell id="hDxcPRRpVYhOaGii5rO3-37" value="У сотрудника меньше 5 опозданий за месяц" style="rhombus;whiteSpace=wrap;html=1;fillColor=#FF0080;" vertex="1" parent="WIyWlLk6GJQsqaUBKTNV-1">
          <mxGeometry x="230" y="880" width="120" height="100" as="geometry" />
        </mxCell>
        <mxCell id="hDxcPRRpVYhOaGii5rO3-38" value="У сотрудника больше 5, но меньше 10 опозданий за месяц" style="rhombus;whiteSpace=wrap;html=1;fillColor=#FF0080;" vertex="1" parent="WIyWlLk6GJQsqaUBKTNV-1">
          <mxGeometry x="390" y="880" width="130" height="110" as="geometry" />
        </mxCell>
        <mxCell id="hDxcPRRpVYhOaGii5rO3-39" value="У сотрудника больше 10 опозданий за месяц" style="rhombus;whiteSpace=wrap;html=1;fillColor=#FF0080;" vertex="1" parent="WIyWlLk6GJQsqaUBKTNV-1">
          <mxGeometry x="570" y="880" width="130" height="110" as="geometry" />
        </mxCell>
        <mxCell id="hDxcPRRpVYhOaGii5rO3-41" value="" style="edgeStyle=orthogonalEdgeStyle;rounded=0;orthogonalLoop=1;jettySize=auto;html=1;" edge="1" parent="WIyWlLk6GJQsqaUBKTNV-1">
          <mxGeometry relative="1" as="geometry">
            <mxPoint x="454.5" y="820" as="sourcePoint" />
            <mxPoint x="454.5" y="880" as="targetPoint" />
            <Array as="points">
              <mxPoint x="454.5" y="870" />
              <mxPoint x="454.5" y="870" />
            </Array>
          </mxGeometry>
        </mxCell>
        <mxCell id="hDxcPRRpVYhOaGii5rO3-42" value="" style="edgeStyle=orthogonalEdgeStyle;rounded=0;orthogonalLoop=1;jettySize=auto;html=1;" edge="1" parent="WIyWlLk6GJQsqaUBKTNV-1">
          <mxGeometry relative="1" as="geometry">
            <mxPoint x="820" y="320" as="sourcePoint" />
            <mxPoint x="820" y="380" as="targetPoint" />
            <Array as="points">
              <mxPoint x="820" y="370" />
              <mxPoint x="820" y="370" />
            </Array>
          </mxGeometry>
        </mxCell>
        <mxCell id="hDxcPRRpVYhOaGii5rO3-46" value="" style="endArrow=classic;html=1;exitX=0;exitY=1;exitDx=0;exitDy=0;" edge="1" parent="WIyWlLk6GJQsqaUBKTNV-1" source="hDxcPRRpVYhOaGii5rO3-36">
          <mxGeometry width="50" height="50" relative="1" as="geometry">
            <mxPoint x="390" y="810" as="sourcePoint" />
            <mxPoint x="290" y="880" as="targetPoint" />
          </mxGeometry>
        </mxCell>
        <mxCell id="hDxcPRRpVYhOaGii5rO3-47" value="" style="endArrow=classic;html=1;exitX=1;exitY=1;exitDx=0;exitDy=0;entryX=0.5;entryY=0;entryDx=0;entryDy=0;" edge="1" parent="WIyWlLk6GJQsqaUBKTNV-1" source="hDxcPRRpVYhOaGii5rO3-36" target="hDxcPRRpVYhOaGii5rO3-39">
          <mxGeometry width="50" height="50" relative="1" as="geometry">
            <mxPoint x="550" y="840" as="sourcePoint" />
            <mxPoint x="414.2842712474619" y="911.7157287525381" as="targetPoint" />
          </mxGeometry>
        </mxCell>
        <mxCell id="hDxcPRRpVYhOaGii5rO3-48" value="" style="endArrow=classic;html=1;" edge="1" parent="WIyWlLk6GJQsqaUBKTNV-1" target="hDxcPRRpVYhOaGii5rO3-49">
          <mxGeometry width="50" height="50" relative="1" as="geometry">
            <mxPoint x="454.5" y="990" as="sourcePoint" />
            <mxPoint x="455" y="1040" as="targetPoint" />
          </mxGeometry>
        </mxCell>
        <mxCell id="hDxcPRRpVYhOaGii5rO3-49" value="Отправка уведомления о штрафе в бухгалтерию" style="rounded=0;whiteSpace=wrap;html=1;fillColor=#33FF33;" vertex="1" parent="WIyWlLk6GJQsqaUBKTNV-1">
          <mxGeometry x="394" y="1030" width="120" height="60" as="geometry" />
        </mxCell>
        <mxCell id="hDxcPRRpVYhOaGii5rO3-50" value="Отправка уведомления в отдел кадров" style="rounded=0;whiteSpace=wrap;html=1;fillColor=#33FF33;" vertex="1" parent="WIyWlLk6GJQsqaUBKTNV-1">
          <mxGeometry x="575" y="1030" width="120" height="60" as="geometry" />
        </mxCell>
        <mxCell id="hDxcPRRpVYhOaGii5rO3-51" value="" style="endArrow=classic;html=1;" edge="1" parent="WIyWlLk6GJQsqaUBKTNV-1">
          <mxGeometry width="50" height="50" relative="1" as="geometry">
            <mxPoint x="634.79" y="990" as="sourcePoint" />
            <mxPoint x="634.5042857142857" y="1030" as="targetPoint" />
          </mxGeometry>
        </mxCell>
        <mxCell id="hDxcPRRpVYhOaGii5rO3-52" value="Данные верны" style="rhombus;whiteSpace=wrap;html=1;strokeColor=#36393d;fillColor=#FF0080;" vertex="1" parent="WIyWlLk6GJQsqaUBKTNV-1">
          <mxGeometry x="760" y="530" width="120" height="100" as="geometry" />
        </mxCell>
        <mxCell id="hDxcPRRpVYhOaGii5rO3-53" value="" style="endArrow=classic;html=1;" edge="1" parent="WIyWlLk6GJQsqaUBKTNV-1">
          <mxGeometry width="50" height="50" relative="1" as="geometry">
            <mxPoint x="819.5" y="460" as="sourcePoint" />
            <mxPoint x="819.5" y="530" as="targetPoint" />
          </mxGeometry>
        </mxCell>
        <mxCell id="hDxcPRRpVYhOaGii5rO3-54" value="" style="endArrow=classic;html=1;" edge="1" parent="WIyWlLk6GJQsqaUBKTNV-1">
          <mxGeometry width="50" height="50" relative="1" as="geometry">
            <mxPoint x="860" y="419.5" as="sourcePoint" />
            <mxPoint x="930" y="419.5" as="targetPoint" />
          </mxGeometry>
        </mxCell>
        <mxCell id="hDxcPRRpVYhOaGii5rO3-55" value="Данные неверны" style="rhombus;whiteSpace=wrap;html=1;strokeColor=#36393d;fillColor=#FF0080;" vertex="1" parent="WIyWlLk6GJQsqaUBKTNV-1">
          <mxGeometry x="930" y="370" width="120" height="100" as="geometry" />
        </mxCell>
        <mxCell id="hDxcPRRpVYhOaGii5rO3-58" value="" style="endArrow=classic;html=1;" edge="1" parent="WIyWlLk6GJQsqaUBKTNV-1" target="hDxcPRRpVYhOaGii5rO3-62">
          <mxGeometry width="50" height="50" relative="1" as="geometry">
            <mxPoint x="819.5" y="630" as="sourcePoint" />
            <mxPoint x="820" y="1100" as="targetPoint" />
          </mxGeometry>
        </mxCell>
        <mxCell id="hDxcPRRpVYhOaGii5rO3-59" value="" style="endArrow=classic;html=1;" edge="1" parent="WIyWlLk6GJQsqaUBKTNV-1">
          <mxGeometry width="50" height="50" relative="1" as="geometry">
            <mxPoint x="989.5" y="470" as="sourcePoint" />
            <mxPoint x="990" y="530" as="targetPoint" />
          </mxGeometry>
        </mxCell>
        <mxCell id="hDxcPRRpVYhOaGii5rO3-60" value="Отмена операции" style="rounded=0;whiteSpace=wrap;html=1;fillColor=#33FF33;" vertex="1" parent="WIyWlLk6GJQsqaUBKTNV-1">
          <mxGeometry x="930" y="540" width="120" height="60" as="geometry" />
        </mxCell>
        <mxCell id="hDxcPRRpVYhOaGii5rO3-62" value="Сотрудник зарегистрирован" style="rhombus;whiteSpace=wrap;html=1;fillColor=#FF0080;" vertex="1" parent="WIyWlLk6GJQsqaUBKTNV-1">
          <mxGeometry x="750" y="1210" width="125" height="110" as="geometry" />
        </mxCell>
        <mxCell id="hDxcPRRpVYhOaGii5rO3-63" value="" style="endArrow=classic;html=1;exitX=0.5;exitY=1;exitDx=0;exitDy=0;" edge="1" parent="WIyWlLk6GJQsqaUBKTNV-1" source="hDxcPRRpVYhOaGii5rO3-50" target="hDxcPRRpVYhOaGii5rO3-62">
          <mxGeometry width="50" height="50" relative="1" as="geometry">
            <mxPoint x="360" y="1180" as="sourcePoint" />
            <mxPoint x="660" y="1250" as="targetPoint" />
          </mxGeometry>
        </mxCell>
        <mxCell id="hDxcPRRpVYhOaGii5rO3-64" value="" style="endArrow=classic;html=1;exitX=0.5;exitY=1;exitDx=0;exitDy=0;entryX=0;entryY=0.5;entryDx=0;entryDy=0;" edge="1" parent="WIyWlLk6GJQsqaUBKTNV-1" source="hDxcPRRpVYhOaGii5rO3-49" target="hDxcPRRpVYhOaGii5rO3-62">
          <mxGeometry width="50" height="50" relative="1" as="geometry">
            <mxPoint x="360" y="1190" as="sourcePoint" />
            <mxPoint x="454" y="1260" as="targetPoint" />
            <Array as="points" />
          </mxGeometry>
        </mxCell>
        <mxCell id="hDxcPRRpVYhOaGii5rO3-65" value="" style="endArrow=classic;html=1;exitX=0.5;exitY=1;exitDx=0;exitDy=0;entryX=0;entryY=0.5;entryDx=0;entryDy=0;" edge="1" parent="WIyWlLk6GJQsqaUBKTNV-1" source="hDxcPRRpVYhOaGii5rO3-37" target="hDxcPRRpVYhOaGii5rO3-62">
          <mxGeometry width="50" height="50" relative="1" as="geometry">
            <mxPoint x="360" y="1190" as="sourcePoint" />
            <mxPoint x="280" y="1330" as="targetPoint" />
            <Array as="points">
              <mxPoint x="290" y="1270" />
            </Array>
          </mxGeometry>
        </mxCell>
        <mxCell id="hDxcPRRpVYhOaGii5rO3-66" value="" style="endArrow=classic;html=1;exitX=0.5;exitY=1;exitDx=0;exitDy=0;entryX=0;entryY=1;entryDx=0;entryDy=0;" edge="1" parent="WIyWlLk6GJQsqaUBKTNV-1" source="hDxcPRRpVYhOaGii5rO3-33" target="hDxcPRRpVYhOaGii5rO3-62">
          <mxGeometry width="50" height="50" relative="1" as="geometry">
            <mxPoint x="360" y="1190" as="sourcePoint" />
            <mxPoint x="330" y="1300" as="targetPoint" />
            <Array as="points">
              <mxPoint x="140" y="1293" />
            </Array>
          </mxGeometry>
        </mxCell>
      </root>
    </mxGraphModel>
  </diagram>
</mxfile>
